<?xml version="1.0" standalone="no"?>
<!DOCTYPE svg PUBLIC "-//W3C//DTD SVG 20010904//EN"
 "http://www.w3.org/TR/2001/REC-SVG-20010904/DTD/svg10.dtd">
<svg version="1.0" xmlns="http://www.w3.org/2000/svg"
 width="512.000000pt" height="512.000000pt" viewBox="0 0 512.000000 512.000000"
 preserveAspectRatio="xMidYMid meet">
<metadata>
Created by potrace 1.14, written by Peter Selinger 2001-2017
</metadata>
<g transform="translate(0.000000,512.000000) scale(0.100000,-0.100000)"
fill="#000000" stroke="none">
<path d="M0 2560 l0 -2560 2560 0 2560 0 0 2560 0 2560 -2560 0 -2560 0 0
-2560z m2815 2446 c17 -2 69 -9 116 -15 138 -16 408 -90 536 -147 29 -13 65
-26 80 -30 16 -4 34 -11 40 -17 7 -5 49 -27 93 -48 45 -22 78 -44 75 -49 -4
-6 -3 -9 2 -8 18 6 94 -33 87 -44 -4 -7 -3 -8 5 -4 10 7 74 -32 91 -54 3 -4
25 -20 50 -35 25 -15 47 -31 50 -34 3 -3 37 -31 75 -62 114 -91 303 -288 365
-379 13 -19 30 -39 37 -43 7 -4 20 -21 28 -36 8 -16 31 -50 51 -77 38 -49 73
-111 165 -294 50 -99 62 -131 109 -270 46 -137 69 -222 84 -301 8 -41 17 -87
21 -104 3 -16 10 -70 15 -120 21 -195 22 -228 11 -235 -9 -5 -9 -14 -1 -34 11
-30 5 -211 -9 -248 -4 -13 -6 -28 -4 -33 7 -21 -36 -273 -60 -350 -14 -44 -33
-107 -42 -140 -17 -61 -41 -125 -77 -202 -10 -23 -19 -45 -19 -48 1 -10 -110
-221 -147 -277 -33 -53 -62 -93 -193 -271 -36 -47 -77 -92 -148 -160 -19 -17
-39 -38 -45 -46 -6 -7 -29 -30 -50 -50 -22 -20 -51 -48 -64 -63 -14 -16 -30
-28 -37 -28 -6 0 -31 -18 -55 -40 -25 -22 -50 -40 -56 -40 -6 0 -18 -7 -25
-16 -23 -27 -264 -175 -310 -189 -12 -4 -60 -26 -107 -50 -147 -73 -408 -154
-602 -185 -41 -7 -82 -14 -90 -15 -44 -8 -199 -17 -300 -18 -219 0 -362 15
-548 59 -56 13 -110 26 -120 27 -28 6 -135 37 -172 51 -156 60 -460 209 -460
226 0 5 -10 10 -23 14 -13 3 -35 16 -49 29 -14 13 -46 35 -71 49 -46 26 -167
123 -244 195 -25 24 -49 43 -54 43 -5 0 -9 4 -9 9 0 4 -24 33 -53 62 -97 99
-154 169 -239 297 -27 39 -52 73 -57 76 -9 6 -35 54 -114 211 -34 68 -50 103
-97 210 -12 28 -33 88 -46 135 -14 47 -28 96 -33 110 -13 37 -28 97 -42 165
-17 85 -19 100 -24 198 -3 49 -7 92 -10 97 -3 5 -6 80 -6 167 -1 150 11 300
30 384 5 21 7 40 5 42 -8 7 55 279 78 334 6 16 12 35 13 43 7 36 59 167 101
253 25 50 51 103 57 117 19 40 98 172 119 200 11 14 40 57 65 95 129 197 450
503 666 633 43 26 100 60 125 75 26 15 63 35 82 44 19 8 47 24 62 34 14 11 31
19 38 19 6 0 30 9 52 20 23 11 50 20 59 20 10 0 21 5 24 10 3 6 17 10 30 10
13 0 26 4 30 9 18 30 320 104 555 137 19 3 36 6 37 8 5 4 463 -3 498 -8z"/>
<path d="M2485 4912 c-2 -2 -46 -5 -97 -7 -102 -3 -134 -7 -283 -36 -108 -21
-130 -27 -245 -60 -95 -27 -324 -116 -370 -144 -19 -11 -48 -26 -65 -34 -16
-7 -59 -31 -95 -53 -283 -179 -388 -269 -598 -507 -126 -144 -308 -441 -365
-597 -8 -21 -28 -75 -45 -119 -52 -138 -104 -356 -123 -515 -21 -177 -10 -568
20 -695 14 -56 45 -188 47 -197 1 -5 2 -9 4 -10 1 -2 3 -10 5 -18 25 -97 89
-278 105 -294 5 -5 10 -16 10 -23 0 -15 9 -34 82 -173 120 -227 306 -465 494
-629 96 -85 148 -126 158 -126 15 0 50 74 76 159 23 74 38 101 81 147 18 19
38 61 53 113 41 133 82 168 444 384 89 53 170 102 180 107 56 33 113 78 103
84 -6 4 11 30 43 66 30 33 57 57 61 53 15 -15 43 34 50 85 6 39 15 59 40 84
18 18 42 33 53 33 17 0 21 -10 29 -72 6 -40 14 -82 18 -93 7 -17 5 -17 -19 5
-15 13 -33 36 -39 50 -14 28 -40 33 -45 8 -5 -26 29 -69 68 -85 38 -16 93 -61
209 -170 74 -70 75 -70 51 -83 -44 -24 -75 -64 -122 -162 -53 -110 -59 -129
-40 -135 8 -3 26 24 48 74 73 160 83 178 114 196 36 22 45 18 60 -29 9 -26 9
-38 0 -49 -7 -8 -14 -43 -16 -77 l-4 -63 20 60 c22 69 42 119 75 190 13 28 29
64 35 82 12 32 33 36 44 8 3 -8 8 -74 11 -147 7 -152 11 -182 26 -172 8 4 9
44 5 123 -11 182 -18 217 -47 226 -33 11 -21 31 54 88 187 143 240 201 222
243 -7 17 -9 16 -14 -10 -10 -48 -27 -41 -39 16 -12 61 -8 72 18 58 26 -14 33
-13 27 4 -4 10 -1 13 9 9 7 -3 14 -12 14 -19 0 -8 7 -25 15 -38 9 -13 18 -48
21 -77 8 -73 13 -88 24 -70 7 12 12 12 34 -3 14 -9 26 -21 26 -26 0 -6 7 -10
16 -10 11 0 15 -6 11 -20 -4 -16 6 -26 51 -50 86 -47 174 -79 270 -100 48 -10
118 -32 155 -49 37 -17 72 -31 78 -31 30 0 224 -224 333 -383 37 -54 78 -111
92 -125 14 -15 37 -46 52 -69 15 -24 32 -43 37 -43 12 0 123 132 162 192 15
24 42 61 60 82 18 22 33 44 33 48 0 5 21 43 46 85 25 42 54 94 64 117 22 53
57 131 78 176 8 19 15 39 13 44 -1 4 5 18 12 30 8 12 18 37 21 56 4 19 16 60
26 90 96 286 124 745 64 1060 -24 127 -88 365 -104 385 -4 6 -11 27 -14 49 -4
21 -11 46 -16 55 -5 9 -38 77 -74 151 -35 74 -76 152 -90 173 -14 21 -26 41
-26 46 0 4 -8 16 -18 27 -10 10 -42 53 -72 94 -71 99 -88 119 -184 223 -78 84
-278 267 -292 267 -8 0 -114 78 -129 95 -5 6 -40 26 -77 45 -37 18 -73 39 -79
46 -6 7 -36 25 -68 40 -31 14 -92 43 -136 64 -79 37 -356 132 -425 145 -179
33 -164 30 -256 40 -142 14 -323 23 -329 17z m461 -568 l28 -19 -36 -6 c-46
-7 -86 -33 -106 -70 -10 -16 -20 -29 -24 -29 -4 0 -12 19 -18 41 -28 101 58
147 156 83z m-280 -139 c27 -8 75 -29 107 -47 32 -18 69 -39 82 -45 12 -7 76
-27 141 -44 66 -17 139 -39 163 -50 24 -10 47 -16 52 -13 5 3 9 1 9 -3 0 -5
19 -14 43 -21 86 -26 163 -101 187 -182 6 -19 13 -66 15 -105 9 -123 14 -152
31 -194 18 -46 55 -71 102 -71 16 0 44 -10 63 -23 32 -22 34 -27 33 -78 0 -49
-6 -63 -59 -144 -54 -82 -85 -159 -85 -209 0 -10 18 -37 41 -58 33 -32 39 -41
29 -53 -7 -8 -29 -15 -50 -15 -37 0 -37 0 -44 48 -16 117 -27 143 -82 192 -33
28 -42 32 -81 27 -31 -3 -54 -14 -83 -41 -45 -41 -79 -46 -134 -19 l-36 16 31
19 c39 24 68 89 64 144 -5 67 -81 194 -160 266 -37 35 -44 39 -61 37 -4 0 -10
4 -14 11 -4 6 -40 22 -80 36 -82 29 -146 66 -173 101 -10 13 -24 29 -30 36 -7
6 -12 18 -13 25 -2 27 -4 32 -13 32 -14 0 4 -54 34 -105 20 -35 39 -50 88 -74
34 -16 85 -36 112 -44 108 -33 168 -82 235 -196 49 -83 61 -142 36 -189 -19
-36 -66 -72 -95 -72 -12 0 -21 -3 -21 -7 1 -26 84 -88 105 -79 8 3 15 1 15 -4
0 -6 16 -10 35 -10 30 0 44 8 83 50 64 68 102 73 153 19 86 -90 94 -349 14
-455 -13 -16 -42 -39 -65 -49 -40 -18 -43 -18 -96 0 -59 20 -77 13 -67 -25 3
-10 0 -27 -6 -37 -10 -15 -11 -12 -6 15 10 49 -10 39 -41 -22 -23 -45 -30 -52
-39 -40 -9 13 -10 10 -9 -13 1 -29 -13 -57 -53 -106 l-23 -29 0 34 c0 18 -5
40 -10 48 -6 10 -9 -3 -7 -42 2 -70 -13 -80 -28 -18 -7 28 -14 40 -19 32 -4
-7 -4 -21 -1 -32 4 -11 2 -20 -3 -20 -5 0 -14 19 -20 43 l-11 42 6 -50 c3 -27
9 -55 14 -61 5 -6 5 -15 1 -19 -4 -5 -1 -5 6 -1 21 12 14 -39 -8 -59 -11 -10
-17 -22 -14 -27 3 -4 2 -7 -3 -6 -4 1 -26 -10 -49 -25 -23 -16 -71 -34 -112
-42 -125 -26 -345 -56 -369 -50 -21 5 -156 68 -215 101 -16 8 -28 19 -28 23 0
5 -9 11 -20 14 -11 3 -20 12 -20 21 0 9 -6 13 -13 10 -19 -7 -96 88 -104 128
-3 18 -12 38 -18 43 -7 6 -23 44 -35 85 -21 73 -93 249 -130 320 -17 33 -37
112 -47 188 -4 24 0 34 14 39 10 3 59 32 108 63 84 54 95 58 164 63 53 3 78 9
86 21 7 8 15 13 18 10 12 -12 148 66 238 137 114 90 158 154 187 279 22 91 39
219 27 209 -3 -4 -19 -58 -35 -121 -46 -188 -80 -241 -214 -340 -95 -71 -305
-172 -321 -156 -3 2 20 37 50 77 30 40 55 78 55 84 -1 12 -8 4 -105 -108 -43
-50 -191 -162 -201 -152 -4 3 3 10 62 67 42 41 121 163 169 262 60 122 57 158
-3 43 -76 -146 -157 -254 -252 -337 -149 -130 -181 -148 -267 -148 l-54 0 33
48 c31 44 33 53 33 127 0 50 -7 99 -18 131 -24 70 -26 110 -11 204 19 122 42
160 177 293 65 64 125 117 132 117 18 0 65 46 65 64 0 9 -18 29 -41 45 l-40
30 33 5 c18 3 57 8 87 11 85 10 367 86 419 114 29 15 163 50 198 50 17 1 53
-6 80 -14z m-906 -1248 c0 -24 7 -66 15 -93 20 -65 20 -64 -21 -64 -35 0 -35
0 -28 33 4 17 8 59 9 92 2 73 3 75 15 75 6 0 10 -20 10 -43z m137 -364 c68
-176 67 -182 -10 -108 -52 49 -67 79 -67 130 0 38 15 85 27 85 5 0 27 -48 50
-107z m63 -178 c0 -9 -6 -12 -15 -9 -8 4 -12 10 -9 15 8 14 24 10 24 -6z
m1047 -157 c-3 -8 -6 -5 -6 6 -1 11 2 17 5 13 3 -3 4 -12 1 -19z m-28 -258 c5
-25 12 -52 16 -61 5 -12 -10 -30 -52 -64 -32 -27 -56 -53 -55 -59 2 -6 1 -8
-3 -4 -9 8 -24 -3 -83 -61 -40 -40 -62 -79 -117 -208 -14 -34 -21 -41 -32 -32
-7 6 -13 19 -13 28 0 17 -105 124 -202 205 -58 48 -58 49 -58 105 0 31 -7 87
-15 126 -18 85 -18 82 0 82 8 0 15 -3 15 -6 0 -4 19 -12 43 -19 93 -26 383 13
481 66 l51 27 7 -40 c5 -22 12 -60 17 -85z"/>
<path d="M2816 3181 c-16 -6 -11 -10 26 -19 26 -7 57 -12 70 -12 l23 1 -24 19
c-24 20 -61 25 -95 11z"/>
<path d="M2024 3094 c-39 -19 -94 -74 -73 -73 23 1 133 63 131 74 -2 16 -25
16 -58 -1z"/>
<path d="M3341 2984 c-56 -46 -100 -177 -70 -203 8 -7 30 -20 49 -29 32 -16
35 -21 38 -67 4 -61 17 -77 33 -42 26 57 -22 147 -78 147 -22 0 -24 3 -18 33
10 49 43 108 81 145 19 18 34 35 34 37 0 15 -43 1 -69 -21z"/>
<path d="M2770 2905 c-15 -18 -8 -103 12 -134 28 -45 79 -4 72 57 -8 74 -53
114 -84 77z"/>
<path d="M2090 2871 c-26 -49 5 -156 45 -156 16 0 21 8 23 40 7 82 -41 165
-68 116z"/>
<path d="M2375 2779 c-21 -39 -16 -113 9 -137 18 -18 20 -10 7 34 -5 19 -5 51
0 79 11 59 6 67 -16 24z"/>
<path d="M2857 2456 c10 -13 20 -20 21 -15 5 12 -17 39 -30 39 -5 0 -1 -11 9
-24z"/>
<path d="M3051 2414 c0 -11 3 -14 6 -6 3 7 2 16 -1 19 -3 4 -6 -2 -5 -13z"/>
<path d="M2656 2393 c-2 -3 -78 -5 -168 -5 -113 0 -156 -2 -139 -9 23 -9 245
-13 286 -5 11 2 47 6 80 10 l60 6 -50 -24 c-59 -28 -39 -34 21 -7 65 30 62 39
-15 39 -39 0 -72 -2 -75 -5z"/>
<path d="M2300 2366 c0 -2 37 -17 83 -32 90 -30 171 -35 246 -15 58 17 47 23
-19 11 -84 -16 -145 -12 -222 15 -71 25 -88 29 -88 21z"/>
<path d="M2112 2300 c0 -14 2 -19 5 -12 2 6 2 18 0 25 -3 6 -5 1 -5 -13z"/>
<path d="M2943 2255 c0 -27 2 -38 4 -22 2 15 2 37 0 50 -2 12 -4 0 -4 -28z"/>
<path d="M2887 2203 c8 -50 13 -55 13 -10 0 20 -4 38 -9 42 -6 3 -7 -10 -4
-32z"/>
<path d="M2331 2194 c0 -11 3 -14 6 -6 3 7 2 16 -1 19 -3 4 -6 -2 -5 -13z"/>
<path d="M2612 2170 c0 -14 4 -36 8 -50 l8 -25 0 25 c0 14 -4 36 -8 50 l-8 25
0 -25z"/>
<path d="M2336 2155 c4 -8 8 -15 10 -15 2 0 4 7 4 15 0 8 -4 15 -10 15 -5 0
-7 -7 -4 -15z"/>
<path d="M2731 2160 c0 -8 4 -24 9 -35 5 -13 9 -14 9 -5 0 8 -4 24 -9 35 -5
13 -9 14 -9 5z"/>
<path d="M2562 2135 c0 -16 2 -22 5 -12 2 9 2 23 0 30 -3 6 -5 -1 -5 -18z"/>
<path d="M3142 1713 c-71 -96 -164 -217 -172 -223 -9 -8 -100 -147 -100 -154
0 -27 95 80 185 209 27 39 63 88 81 110 34 43 70 113 62 121 -3 2 -28 -26 -56
-63z"/>
<path d="M3551 1534 c0 -11 3 -14 6 -6 3 7 2 16 -1 19 -3 4 -6 -2 -5 -13z"/>
<path d="M3531 1450 c0 -14 -4 -36 -7 -50 -5 -22 -4 -23 6 -7 6 9 9 32 7 50
-3 25 -4 26 -6 7z"/>
<path d="M1908 1360 c2 -47 9 -92 14 -100 6 -10 7 14 2 64 -9 111 -22 139 -16
36z"/>
<path d="M2246 1378 c53 -62 81 -90 99 -100 11 -6 -7 19 -40 54 -33 36 -64 66
-69 67 -5 0 -1 -9 10 -21z"/>
<path d="M2657 1343 c-11 -10 -8 -43 3 -43 6 0 10 11 10 25 0 26 -2 29 -13 18z"/>
<path d="M3497 1123 c-3 -5 -4 -26 -4 -49 0 -22 -3 -46 -7 -53 -23 -37 1 -175
64 -361 16 -47 36 -111 46 -142 9 -32 21 -58 25 -58 12 0 14 -6 -30 126 -82
249 -93 302 -87 429 5 108 4 126 -7 108z"/>
<path d="M2676 1085 c-12 -18 -13 -25 -4 -25 9 0 8 -3 -2 -10 -13 -8 -12 -12
6 -31 18 -17 25 -19 43 -10 26 14 27 48 2 79 -24 28 -25 28 -45 -3z m46 -39
c4 -23 -20 -34 -28 -12 -8 21 4 52 15 40 5 -5 11 -18 13 -28z"/>
<path d="M1876 933 c-9 -22 -9 -172 0 -228 4 -28 -5 -79 -29 -175 -19 -74 -37
-152 -40 -172 -7 -44 10 -62 18 -21 4 15 18 69 32 118 44 158 45 164 38 330
-4 88 -9 161 -10 163 -1 2 -6 -5 -9 -15z"/>
<path d="M4225 890 c-3 -5 -1 -10 4 -10 6 0 11 5 11 10 0 6 -2 10 -4 10 -3 0
-8 -4 -11 -10z"/>
<path d="M4185 850 c-10 -11 -14 -20 -8 -20 5 0 18 9 28 20 10 11 14 20 8 20
-5 0 -18 -9 -28 -20z"/>
</g>
</svg>
